<svg xmlns="http://www.w3.org/2000/svg">
  <defs>
    <style><![CDATA[
      .sprite { display: none; }
      .sprite:target { display: inline; }
    ]]></style>
  </defs>

<g class="sprite" id="search">
<path d="m17.19 15.48 6.46 6.45a1.21 1.21 0 1 1-1.72 1.72l-6.45-6.46a9.6 9.6 0 1 1 1.7-1.71h.01ZM9.6 16.8a7.2 7.2 0 1 0 0-14.4 7.2 7.2 0 0 0 0 14.4Z"/>
</g>

<g class="sprite" id="cart">
<path d="M8 22.4a1.6 1.6 0 1 0 0-3.2 1.6 1.6 0 0 0 0 3.2ZM19.2 22.4a1.6 1.6 0 1 0 0-3.2 1.6 1.6 0 0 0 0 3.2ZM22.4 4H4.66L4 .64A.8.8 0 0 0 3.2 0H0v1.6h2.54L5.6 16.96a.8.8 0 0 0 .8.64h14.4V16H7.06l-.66-3.2h14.4a.8.8 0 0 0 .8-.62l1.6-7.2a.8.8 0 0 0-.8-.98Zm-2.24 7.2H6.1L4.98 5.6H21.4l-1.24 5.6Z"/>
</g>

<g class="sprite" id="menu">
<path d="M.57 0h22.86v2.29H.57V0ZM6.3 5.71h17.14V8H6.29V5.71Zm7.14 5.72h10v2.28h-10v-2.28Z"/>
</g>

<g class="sprite" id="briefcase">
<path d="M43.09 12.53h-5.07V7.46a3.38 3.38 0 0 0-3.38-3.38H14.36a3.38 3.38 0 0 0-3.38 3.38v5.07H5.91A5.07 5.07 0 0 0 .84 17.6v23.65a3.38 3.38 0 0 0 3.38 3.38h40.56a3.38 3.38 0 0 0 3.38-3.38V17.6a5.07 5.07 0 0 0-5.07-5.07ZM14.36 7.46h20.28v5.07H14.36V7.46Zm30.42 33.8H4.22V26.03h13.52v8.45h13.52v-8.45h13.52v15.21ZM21.12 26.03h6.76v5.07h-6.76v-5.07Zm-16.9-3.38V17.6a1.69 1.69 0 0 1 1.7-1.7h37.17a1.69 1.69 0 0 1 1.69 1.7v5.06H4.22Z"/>
</g>

<g class="sprite" id="transport">
<path d="M43.15 13.75H3.85c-.02 0-.03.01-.03.03v5.4a6.5 6.5 0 0 0 6.56 6.42 6.6 6.6 0 0 0 5.7-3.24 1 1 0 0 1 1.72 0 6.58 6.58 0 0 0 5.7 3.24 6.57 6.57 0 0 0 5.7-3.25c.18-.3.5-.48.84-.48h.04c.34 0 .66.18.83.48a6.59 6.59 0 0 0 5.71 3.25 6.5 6.5 0 0 0 6.56-6.42v-5.4c0-.02-.01-.03-.03-.03Z" opacity=".15"/>
<path d="M45.7 9.49v-7.6A1.9 1.9 0 0 0 43.78 0H3.22A1.9 1.9 0 0 0 1.3 1.9v7.59c-1 .06-1.8.88-1.8 1.89v7.8a10.38 10.38 0 0 0 1.8 5.89v20.45c0 1.04.86 1.9 1.92 1.9h40.56a1.9 1.9 0 0 0 1.92-1.9V25.07a10.48 10.48 0 0 0 1.8-5.89v-7.8c0-1-.8-1.83-1.8-1.9ZM5.62 4.27h35.76v5.21H5.62V4.27Zm21.72 38.88h-7.68v-6.17h7.68v6.17Zm14.06 0H31.18V35.1a1.9 1.9 0 0 0-1.92-1.9H17.74a1.9 1.9 0 0 0-1.92 1.9v8.06H5.62V28.8l.54.24a10.93 10.93 0 0 0 8.45 0 11 11 0 0 0 2.36-1.31 10.86 10.86 0 0 0 6.54 2.14 10.95 10.95 0 0 0 6.55-2.14h.03a10.86 10.86 0 0 0 6.55 2.14 10.95 10.95 0 0 0 4.76-1.07v14.35Zm1.78-23.96a6.5 6.5 0 0 1-6.56 6.41 6.59 6.59 0 0 1-5.71-3.25.96.96 0 0 0-.83-.48h-.04a.97.97 0 0 0-.83.48 6.51 6.51 0 0 1-5.71 3.25 6.58 6.58 0 0 1-5.7-3.24 1 1 0 0 0-1.72 0 6.54 6.54 0 0 1-5.7 3.24 6.5 6.5 0 0 1-6.56-6.41v-5.41c0-.02.01-.03.03-.03h39.3c.02 0 .03.01.03.03v5.4Z"/>
</g>

<g class="sprite" id="notepad">
<path d="M29.64 13.62h12v3.45h-12v-3.45ZM29.64 22.24h12v3.44h-12v-3.44ZM29.64 30.85h12v3.45h-12v-3.45Z"/>
<path d="M45.07 5.01H3.93A3.42 3.42 0 0 0 .5 8.46v31a3.46 3.46 0 0 0 3.43 3.45h41.14a3.42 3.42 0 0 0 3.43-3.45v-31A3.46 3.46 0 0 0 45.07 5ZM3.93 8.46H22.8v31H3.93v-31Zm22.28 31v-31h18.86v31H26.21Z"/>
</g>

<g class="sprite" id="people">
<path d="M24.84 22.8c4.3 0 7.65-3.5 7.65-7.78 0-4.3-3.5-7.63-7.8-7.63-4.31 0-7.66 3.5-7.66 7.63 0 4.29 3.5 7.78 7.81 7.78Zm-.16-12.23c.16 0 .16 0 0 0a4.62 4.62 0 0 1 4.62 4.6 4.49 4.49 0 0 1-4.62 4.45 4.45 4.45 0 0 1-4.46-4.44c0-2.55 2.07-4.61 4.46-4.61ZM48.43 21.85a15.82 15.82 0 0 0-11.16-3.97H36c-.32 1.27-.8 2.38-1.44 3.33.96-.16 1.76-.16 2.71-.16 3.03-.15 6.06.8 8.45 2.55v11.44h3.2V22.33l-.49-.48ZM33.6 7.7a3.94 3.94 0 0 1 5.11-2.06 3.92 3.92 0 0 1 2.07 5.09 3.98 3.98 0 0 1-3.5 2.38c-.32 0-.8 0-1.12-.16.16.8.16 1.59.16 2.23v.95c.32 0 .64.16.96.16a7.1 7.1 0 0 0 7.17-7 7.1 7.1 0 0 0-7.02-7.14 6.84 6.84 0 0 0-6.05 3.5A6.8 6.8 0 0 1 33.6 7.7ZM15.44 21.37A10.57 10.57 0 0 1 14 18.04h-1.27a16.44 16.44 0 0 0-11.16 3.8l-.48.49v12.7h3.19V23.6a13.58 13.58 0 0 1 8.45-2.55c.95 0 1.9.16 2.7.32ZM12.72 16.13c.32 0 .64 0 .96-.16v-.95c0-.8 0-1.6.16-2.23-.32.16-.8.16-1.12.16A3.87 3.87 0 0 1 8.9 9.14a3.87 3.87 0 0 1 3.82-3.81c1.6 0 3.03.95 3.67 2.38.64-.8 1.6-1.59 2.4-2.23A7.06 7.06 0 0 0 9.05 3.1a7.01 7.01 0 0 0 3.66 13.03ZM37.91 31.38l-.32-.48a16.11 16.11 0 0 0-12.43-5.4c-4.78-.16-9.4 1.91-12.6 5.4l-.31.48v12.08c0 1.43 1.11 2.7 2.7 2.7h20.41a2.79 2.79 0 0 0 2.71-2.7V31.38h-.16Zm-3.19 11.6H15.44V32.49a13.63 13.63 0 0 1 9.72-3.81c3.5-.16 7.01 1.27 9.56 3.81v10.49Z"/>
</g>

<g class="sprite" id="graph">
<path d="M43.15 12.28c-.57 0-1.14.12-1.68.33l-5.74-4.79A6.02 6.02 0 0 0 29.99.1 6.02 6.02 0 0 0 24 6.2c0 .96.24 1.86.63 2.67l-6.97 8.38a4.62 4.62 0 0 0-2.07.1l-6.13-6.25a4.82 4.82 0 0 0-4.6-6.12 4.82 4.82 0 0 0-4.8 4.87c0 2.7 2.14 4.88 4.79 4.88.43 0 .83-.07 1.23-.18l6.13 6.25a4.82 4.82 0 0 0 4.6 6.12 4.82 4.82 0 0 0 4.5-6.51L28.3 12c.54.17 1.1.28 1.7.28.94 0 1.87-.24 2.7-.68l5.75 4.78a4.82 4.82 0 0 0 4.71 5.65 4.82 4.82 0 0 0 4.79-4.87c0-2.7-2.14-4.88-4.79-4.88Z"/>
</g>

<g class="sprite" id="award">
<path d="M9.06 34c-.8-.82-.38-.59-2.34-1.12a6.72 6.72 0 0 1-2.37-1.24L.1 42.06a1.5 1.5 0 0 0 1.44 2.07l4.92-.19 3.38 3.59c.75.8 2.06.54 2.47-.47l4.86-11.96c-1.02.57-2.14.9-3.3.9a6.75 6.75 0 0 1-4.82-2Zm26.67 8.06-4.24-10.42a6.7 6.7 0 0 1-2.37 1.24c-1.97.53-1.54.3-2.35 1.11-1.28 1.3-3 2-4.81 2a6.76 6.76 0 0 1-3.3-.89l4.86 11.96a1.49 1.49 0 0 0 2.47.47l3.38-3.59 4.92.19a1.5 1.5 0 0 0 1.44-2.07ZM24.55 31.87c1.42-1.45 1.59-1.33 3.62-1.88a3.8 3.8 0 0 0 2.65-2.72c.7-2.66.52-2.34 2.43-4.3a3.9 3.9 0 0 0 .97-3.7c-.7-2.66-.7-2.3 0-4.95a3.9 3.9 0 0 0-.97-3.71c-1.91-1.95-1.73-1.63-2.43-4.3a3.8 3.8 0 0 0-2.65-2.71c-2.6-.71-2.3-.53-4.2-2.48a3.7 3.7 0 0 0-3.63-1c-2.6.72-2.24.72-4.84 0a3.7 3.7 0 0 0-3.63 1c-1.9 1.95-1.6 1.77-4.2 2.48a3.8 3.8 0 0 0-2.65 2.72c-.7 2.66-.52 2.34-2.43 4.29a3.9 3.9 0 0 0-.97 3.7c.7 2.66.7 2.3 0 4.96a3.9 3.9 0 0 0 .97 3.7c1.9 1.96 1.73 1.64 2.43 4.3a3.8 3.8 0 0 0 2.65 2.72c2.1.57 2.25.48 3.62 1.88a3.7 3.7 0 0 0 4.64.55 3.7 3.7 0 0 1 3.97 0 3.7 3.7 0 0 0 4.65-.55ZM9.1 16.5c0-4.97 3.95-9 8.8-9a8.9 8.9 0 0 1 8.81 9c0 4.98-3.94 9-8.8 9a8.9 8.9 0 0 1-8.8-9Z"/>
</g>

<g class="sprite" id="case">
<path d="M42.59 8.53h-5.07V3.46A3.38 3.38 0 0 0 34.14.08H13.86a3.38 3.38 0 0 0-3.38 3.38v5.07H5.41a5.07 5.07 0 0 0-5.07 5.06v23.66a3.38 3.38 0 0 0 3.38 3.38h40.56a3.38 3.38 0 0 0 3.38-3.38V13.6a5.07 5.07 0 0 0-5.07-5.06ZM13.86 3.46h20.28v5.07H13.86V3.46Zm30.42 33.8H3.72V22.03h13.52v8.45h13.52v-8.45h13.52v15.21ZM20.62 22.03h6.76v5.07h-6.76v-5.07Zm-16.9-3.38V13.6a1.69 1.69 0 0 1 1.7-1.69h37.17a1.69 1.69 0 0 1 1.69 1.7v5.06H3.72Z"/>
</g>

<g class="sprite" id="about01">
<path fill="#FF7B47" fill-rule="evenodd" d="M18.74 8.77a4.25 4.25 0 1 1-4.72-7.07 4.25 4.25 0 0 1 4.72 7.07Zm-1.18-5.3A2.13 2.13 0 1 0 15.19 7a2.13 2.13 0 0 0 2.37-3.53Zm5.54.07a3.17 3.17 0 0 1 4.83 1.73 3.21 3.21 0 0 1-3.68 4.08 3.17 3.17 0 0 1-2.38-2.07 3.21 3.21 0 0 1 1.24-3.74Zm1.02 3.42a1.06 1.06 0 1 0 1.5-1.5c-.2-.2-.46-.32-.74-.33A1.06 1.06 0 0 0 23.8 6.2c0 .29.12.56.31.76ZM6.15 25.4H10v2.13H6.15a2.54 2.54 0 0 1-2.52-2.56v-3.85a2.12 2.12 0 0 1-1.51-.7 2.14 2.14 0 0 1-.62-1.57v-4.63a3.75 3.75 0 0 1 3.74-3.78h3.91a6.19 6.19 0 0 0-1.17 2.13H5.24a1.65 1.65 0 0 0-1.62 1.65v4.74h2.13v6a.43.43 0 0 0 .1.33c.1.06.2.1.3.1Zm15.52-13.85A3.75 3.75 0 0 0 19 10.44h-5.27c-.99 0-1.94.4-2.63 1.1-.7.72-1.1 1.68-1.1 2.68v6.75c-.01.58.2 1.14.6 1.56a2.12 2.12 0 0 0 1.52.7v4.94a2.55 2.55 0 0 0 .74 1.82c.38.36.86.59 1.38.66h4.25a2.44 2.44 0 0 0 2.13-2.48v-4.93a2.12 2.12 0 0 0 1.5-.7 2.14 2.14 0 0 0 .62-1.57v-6.75c0-1-.39-1.96-1.08-2.68Zm-1.04 9.53H18.5v7.1c0 .1-.05.21-.13.3a.36.36 0 0 1-.3.12h-3.42a.45.45 0 0 1-.42-.43v-7.1h-2.1v-6.85c0-.43.16-.85.46-1.16.3-.3.72-.48 1.15-.49h5.27a1.65 1.65 0 0 1 1.5 1.02c.08.2.12.41.12.63v6.86Zm5.97 6.45h-3.85V25.4h3.83a.5.5 0 0 0 .3-.11.42.42 0 0 0 .12-.32v-6h2.13v-4.75a1.65 1.65 0 0 0-1.62-1.65h-2.74a6.18 6.18 0 0 0-1.17-2.14h3.91a3.76 3.76 0 0 1 3.74 3.79v4.63a2.27 2.27 0 0 1-2.12 2.27v3.85a2.57 2.57 0 0 1-2.53 2.56ZM7.88 3a3.17 3.17 0 0 0-3.13 3.83 3.22 3.22 0 0 0 2.5 2.52 3.18 3.18 0 0 0 3.81-3.15A3.21 3.21 0 0 0 7.88 3Zm0 4.27A1.06 1.06 0 0 1 6.8 6.2a1.07 1.07 0 0 1 1.07-1.07A1.08 1.08 0 0 1 8.94 6.2a1.07 1.07 0 0 1-1.06 1.07Z" clip-rule="evenodd"/>
</g>

<g class="sprite" id="about02">
<path fill="#FF7B47" d="m30.32 7.36-2 3.01a13 13 0 0 1-.36 12.32H5.44A13 13 0 0 1 22.52 4.57l3-2A16.25 16.25 0 0 0 2.64 24.31a3.25 3.25 0 0 0 2.8 1.63h22.5a3.25 3.25 0 0 0 2.83-1.63 16.25 16.25 0 0 0-.44-16.96l-.01.01ZM14.4 18.48a3.25 3.25 0 0 0 4.6 0l9.2-13.8-13.8 9.2a3.25 3.25 0 0 0 0 4.6Z"/>
</g>

<g class="sprite" id="partner01">
<path fill="#737373" d="m35.64 46.95 8.92.19a61.74 61.74 0 0 1-8.92-3.95v3.76Zm13.44-1.25v1.25l-4.52.19c8.5 2.93 16.27 3.33 22.05 1.69a49.48 49.48 0 0 1-17.53-3.13Zm95.2-27.04c3.7 0 6.72-3.03 6.72-6.78 0-3.76-3-5.75-6.73-5.75-3.7 0-6.73 2.02-6.73 5.75s3 6.78 6.73 6.78Zm-6.76 28.29H151V21h-13.48v25.94Zm-17.16 0h13.48V1.1l-13.48 6.41v39.44Zm-7.22-28.03c-4.23-4.27-11.73-4.01-11.73-4.01s-7.52-.26-11.73 4.01c-4.24 4.27-3.91 7.96-3.91 12.35s-.33 8.05 3.9 12.32c4.24 4.27 11.74 4.02 11.74 4.02s7.52.25 11.73-4.02c4.24-4.27 3.92-7.93 3.92-12.32-.03-4.42.3-8.1-3.92-12.35Zm-9.26 16.88c0 .84-.42 2.93-2.5 2.93-2.06 0-2.48-2.09-2.48-2.93V26.3c0-2.04 1.7-2.55 2.49-2.55.79 0 2.49.49 2.49 2.55v9.49ZM79.15 18.92c-4.23-4.27-11.73-4.01-11.73-4.01s-7.5-.26-11.73 4.01c-.45.45-.86.92-1.24 1.4C45.56 13.39 37.57 9.43 30.68 6V1.13L25.44 3.6C12.78-1.57 4.72-.66 2.8 3.64c0 0-5.8 7.7 14.39 26v17.3h13.48v-6.7a69.06 69.06 0 0 1-4.52-3.2 144.28 144.28 0 0 1-8.94-7.37V22.4A113.4 113.4 0 0 0 29.64 34.2l1.04.85v-7c0-1.62.4-4.27 2.52-4.27s2.47 1.62 2.47 3.52v11.43a61.89 61.89 0 0 0 13.43 6.95V23.64c0-4.4-3.12-8.78-9.45-8.78A10.28 10.28 0 0 0 30.68 20V7.25c9.76 4.91 19.54 10.92 23.26 13.69-2.37 3.43-2.16 6.6-2.16 10.26 0 4.39-.33 8.05 3.9 12.32 4.24 4.27 11.74 4.02 11.74 4.02s7.52.25 11.73-4.02c4.24-4.27 3.9-7.93 3.9-12.32 0-4.35.34-8.03-3.9-12.28ZM17.18 7.52v14.85C5.84 9.57 8.12 4.53 8.98 3.8c3.15-2.67 8.74-1.88 15 .5l-6.8 3.21ZM69.91 35.8c0 .84-.42 2.93-2.49 2.93-2.07 0-2.49-2.09-2.49-2.93V26.3c0-2.04 1.7-2.55 2.5-2.55.78 0 2.48.49 2.48 2.55v9.49Z"/>
</g>

<g class="sprite" id="partner02">
<path fill="#737373" d="M4 1.67h21.12v57.08c0 9.05 4.07 14.44 7.39 16.68-3.45 3.03-13.9 5.71-21.78-.77C6.12 70.83 4 64.46 4 58.53V1.67Zm131.91 47.45V43.1h6.47v-21h-7.09A27.9 27.9 0 0 0 108.06.03C92.69.03 80.18 12.6 80.18 28.12v49c4.34.63 9.6-.08 14.03-3.83 4.65-3.82 6.74-10.17 6.74-16.13v-1.83h10.53v-21h-10.53v-6.38c0-9.46 14.17-9.46 14.17 0v21.09c0 15.48 12.49 28.08 27.88 28.08V56.2a7.09 7.09 0 0 1-7.09-7.08Zm-79.9-27.08v30.9c0 4.22-6.45 4.22-6.45 0v-30.9H28.7v36.3c0 6.5 2.17 14.76 12.21 17.47 10.05 2.68 15.8-2.9 15.8-2.9-.57 3.67-3.93 6.37-9.47 6.92-4.21.44-9.56-.98-12.22-2.13v19.22c6.81 2.05 13.98 2.68 21.07 1.29 12.78-2.49 20.85-13.24 20.85-27.57V21.91H56.02v.13Z"/>
</g>

<g class="sprite" id="partner03">
<path fill="#737373" d="M151 .21C132.19 12.83 130.19 22 128.56 24.8c-1.56 2.87-2.73 14.2-5.43 19.68-2.72 5.56-12.62 9.94-15.39 11.77-2.72 1.84-6.58 8.97-9.75 15.12-25.17-1.04-38.97 9.13-60.35 22.03 6.85-2.28 10.08-3.93 10.08-3.93 21.94-8.48 32.44-16.08 65.45-11.58.25 0 .44.14.65.19.9.51 1.23 1.62.72 2.54L102 103.16a2.79 2.79 0 0 1-3.05 1.44c-29.52-5.6-52.82 4.07-74.24 4.38C7.6 109.23 2 101.09 2 100.7c0-.26.14-.4.4-.4 0 0 8.91 0 24-3.6 17.13-33.03 32.4-44.59 49.03-44.59 0 0 16.7 0 21.1 14.57l6.58-11.58c1.23-2.21 8.15-18.17 20.11-33.29 12-15.06 21.05-18.8 27.78-21.6Z"/>
</g>


<g class="sprite" id="partner04">
<path fill="#737373" d="M38.42 4.7 28.33 6.8l-.04 32.36c0 5.98 4.6 9.84 10.73 9.84 3.4 0 5.9-.61 7.26-1.34v-7.68c-1.32.52-7.84 2.38-7.84-3.57V22.05h7.84v-8.6h-7.84l-.02-8.75Zm20.74 11.73-.63-2.98h-8.94v34.82H59.9V24.84c2.45-3.14 6.57-2.52 7.9-2.11v-9.28c-1.4-.47-6.22-1.36-8.64 2.98ZM80.65 0 70.26 2.16v8.23l10.39-2.16V0Zm-70.2 23.7c0-1.56 1.35-2.18 3.52-2.2 3.14 0 7.15.93 10.29 2.6v-9.5a28.19 28.19 0 0 0-10.27-1.85C5.61 12.75.02 17.02.02 24.15c0 11.2 15.72 9.37 15.72 14.2 0 1.85-1.65 2.47-3.96 2.47-3.42 0-7.84-1.39-11.31-3.23v9.1a29.25 29.25 0 0 0 11.29 2.29c8.59 0 14.5-3.6 14.5-10.87 0-12.02-15.8-9.86-15.8-14.4ZM149 31.27c0-10.34-5.12-18.5-14.94-18.5-9.83 0-15.81 8.16-15.81 18.43 0 12.16 7.05 17.78 17.1 17.78 4.94 0 8.65-1.1 11.46-2.62v-7.59A22.3 22.3 0 0 1 136.66 41c-4.03 0-7.56-1.39-8.03-6.11h20.23c.05-.53.14-2.64.14-3.62Zm-20.46-3.82c0-4.54 2.86-6.45 5.45-6.45 2.53 0 5.23 1.9 5.23 6.45h-10.68Zm-26.29-14.68a11.8 11.8 0 0 0-8.1 3.16l-.54-2.5h-9.1v46.55l10.34-2.14.02-11.4a11.75 11.75 0 0 0 7.31 2.54c7.4 0 14.16-5.28 14.16-18.1.02-11.72-6.82-18.1-14.09-18.1Zm-2.47 27.84c-2.42 0-3.86-.86-4.86-1.9l-.07-15a6.27 6.27 0 0 1 4.93-2c3.78 0 6.38 4.13 6.38 9.4.03 5.44-2.53 9.5-6.38 9.5Zm-29.5 7.66h10.4V13.45h-10.4v34.82Z"/>
</g>

<g class="sprite" id="partner05">
<path fill="#737373" d="M42.23 33.37c-.17 5.4 2.53 7.79 2.6 9.3a1.95 1.95 0 0 1-.98 1.5l-3.05 2.14c-.4.27-.86.43-1.34.46-.1-.01-1.96.43-4.88-6.1a18.73 18.73 0 0 1-14.93 7.01c-3.88.21-14.39-2.2-13.85-13.4-.38-9.12 8.12-14.79 16.9-14.3 1.7 0 5.15.08 11.2 1.49v-3.73c.64-6.3-3.5-11.2-10.68-10.46-.57 0-4.62-.12-10.92 2.4-1.75.81-1.98.68-2.56.68-1.77 0-1.04-5.12-.7-5.77C10.28 3.07 17.58.22 24.75.26c4.8-.43 9.56 1.05 13.27 4.12a16.75 16.75 0 0 1 4.22 12.48v16.51Zm-20.6 7.72c7.74-.11 11-4.76 11.75-7.26.59-2.4.5-3.91.5-6.53a40.96 40.96 0 0 0-9.44-1.16c-3.6-.28-10.2 1.34-9.94 7.69-.3 4 2.65 7.48 7.14 7.26Zm40.74 5.5c-1.87.17-2.74-1.16-3.02-2.48L47.48 4.87a9.11 9.11 0 0 1-.46-2.05 1.1 1.1 0 0 1 .92-1.25h5.3c2.1-.2 2.78 1.44 3 2.47l8.5 33.57 7.91-33.57c.13-.76.7-2.63 3.05-2.44h4.1c.5-.04 2.64-.12 3.01 2.48l7.97 33.99 8.78-34c.12-.51.65-2.7 3.03-2.47h4.7c.2-.03 1.46-.19 1.25 2.05-.1.44.81-2.54-12.57 40.5-.28 1.3-1.15 2.64-3.03 2.46H88.5c-2.6.28-2.98-2.3-3.02-2.56l-7.9-32.68-7.82 32.65c-.03.26-.4 2.84-3.02 2.56h-4.36Zm65.18 1.34c-1.4 0-8.09-.08-13.67-2.93a3.05 3.05 0 0 1-1.86-2.84V39.6c0-2.02 1.47-1.65 2.1-1.4 2.4.96 3.93 1.7 6.86 2.28 8.74 1.8 12.58-.55 13.52-1.07a5.48 5.48 0 0 0 1.25-8.33c-2.5-2.1-3.69-2.17-12.66-5-1.1-.31-10.41-3.25-10.43-12.48C112.5 6.87 118.63.2 129.22.26c3.02 0 11.07.99 13.25 3.73.32.5.48 1.08.45 1.67v2.41c0 1.06-.38 1.59-1.16 1.59-1.83-.2-5.1-2.66-11.71-2.56-1.64-.09-9.5.21-9.16 5.95-.1 4.52 6.35 6.21 7.08 6.4 8.7 2.62 11.6 3.06 15.04 7.06 4.09 5.3 1.89 11.51 1.04 13.21-4.55 8.94-16.3 8.21-16.5 8.2Zm9.58 24.99C120.43 85.25 96.2 91.8 75.53 91.8A111.8 111.8 0 0 1-.1 63.03c-1.55-1.4-.18-3.33 1.71-2.26a151.88 151.88 0 0 0 75.52 20.05c19.78-.1 39.35-4.12 57.57-11.8 2.81-1.2 5.2 1.85 2.42 3.9Zm6.95-7.94c-2.13-2.74-14.13-1.28-19.5-.64-1.61.19-1.89-1.22-.42-2.25 9.55-6.72 25.23-4.8 27.03-2.54 1.8 2.26-.48 17.98-9.42 25.48-1.38 1.16-2.69.55-2.08-.97 2.01-5.07 6.53-16.33 4.4-19.08Z"/>
</g>

<g class="sprite" id="partner06">
<path fill="#737373" d="M133.19 54.55c-4.7 0-8.83 1.97-11.86 5.03-11.18-7.8-26.23-12.84-42.92-13.37l8.67-39.47L114.7 13c0 6.83 5.51 12.4 12.27 12.4 6.89 0 12.43-5.73 12.43-12.56S133.88.28 126.96.28c-4.82 0-8.98 2.95-11.05 6.96L85.42.41c-1.53-.41-3.03.7-3.44 2.25l-9.52 43.51C55.9 46.87 41 51.9 29.8 59.71a16.55 16.55 0 0 0-12.02-5.16c-17.4 0-23.1 23.6-7.17 31.66-.56 2.5-.81 5.16-.81 7.81 0 26.5 29.55 47.98 65.82 47.98 36.44 0 66-21.47 66-47.98 0-2.65-.3-5.44-.98-7.93 15.62-8.1 9.86-31.54-7.45-31.54ZM35.87 87.9c0-6.96 5.51-12.56 12.43-12.56 6.76 0 12.27 5.57 12.27 12.56a12.35 12.35 0 1 1-24.7 0Zm67.08 29.57c-11.4 11.51-43.54 11.51-54.93 0-1.26-1.1-1.26-3.07 0-4.33a2.99 2.99 0 0 1 4.13 0c8.7 9 37.56 9.17 46.64 0a2.99 2.99 0 0 1 4.13 0c1.28 1.26 1.28 3.22.03 4.33Zm-.25-17.14a12.35 12.35 0 0 1-12.27-12.4c0-6.96 5.51-12.56 12.27-12.56 6.89 0 12.43 5.57 12.43 12.56a12.45 12.45 0 0 1-12.43 12.4Z"/>
</g>

<g class="sprite" id="phone" viewBox="0 0 73 72">
<path d="M56.93 39a3.78 3.78 0 0 0-5.36 0l-6.04 6.03c-2.8-.83-8.02-2.72-11.33-6.04-3.31-3.3-5.2-8.53-6.04-11.33l6.04-6.04a3.78 3.78 0 0 0 0-5.36L19.05 1.11a3.78 3.78 0 0 0-5.36 0L3.4 11.38a7.57 7.57 0 0 0-2.22 5.44c.1 5.4 1.52 24.13 16.29 38.9 14.76 14.77 33.5 16.2 38.9 16.28h.1c2 0 3.9-.78 5.33-2.22l10.27-10.27a3.78 3.78 0 0 0 0-5.36L56.93 39Zm-.48 25.42c-4.73-.08-20.9-1.35-33.62-14.06C10.08 37.61 8.85 21.37 8.77 16.74l7.6-7.6 9.8 9.8-4.9 4.9a3.79 3.79 0 0 0-1.04 3.46c.1.43 2.32 10.76 8.6 17.05 6.3 6.29 16.63 8.51 17.06 8.6a3.75 3.75 0 0 0 3.46-1.02l4.9-4.9 9.8 9.8-7.6 7.6Z"/>
</g>

<g class="sprite" id="point" viewBox="0 0 57 71">
<path d="M28.5 42c8 0 14.5-6.28 14.5-14s-6.5-14-14.5-14S14 20.28 14 28s6.5 14 14.5 14Zm0-21c4 0 7.25 3.14 7.25 7s-3.25 7-7.25 7-7.25-3.14-7.25-7 3.25-7 7.25-7Z"/>
<path d="M26.43 70.34a3.56 3.56 0 0 0 4.14 0C31.65 69.58 57.1 51.26 57 28.4A28.48 28.48 0 0 0 28.5 0 28.48 28.48 0 0 0 0 28.38c-.1 22.88 25.35 41.2 26.43 41.96ZM28.5 7.1a21.36 21.36 0 0 1 21.37 21.32c.08 15.75-15.63 29.9-21.37 34.54-5.74-4.64-21.45-18.8-21.37-34.56 0-11.75 9.58-21.3 21.37-21.3Z"/>
</g>

<g class="sprite" id="telegram" viewBox="0 0 70 71">
<path d="M68.35 1.16a2.78 2.78 0 0 0-3.03-.69l-63.46 24a2.9 2.9 0 0 0-1.35 1.1 3.08 3.08 0 0 0 0 3.41c.33.5.8.88 1.35 1.1l27.7 11.52 11.07 28.8c.2.54.56 1.01 1.02 1.35.47.33 1.01.52 1.57.54.59-.01 1.15-.21 1.63-.56a3 3 0 0 0 1.03-1.42l23.07-66a3.11 3.11 0 0 0-.6-3.15ZM43.22 60.9l-8.04-21 13.81-14.37-4.06-4.23-13.94 14.49-20.07-8.49L61.48 8.3 43.22 60.9Z"/>
</g>

<g class="sprite" id="facebook" viewBox="0 0 24 24">
<path fill="#335BF5" d="M23.04 0H.96A.96.96 0 0 0 0 .96v22.08c0 .53.43.96.96.96h22.08c.53 0 .96-.43.96-.96V.96a.96.96 0 0 0-.96-.96Zm-2.77 7h-1.92c-1.5 0-1.8.72-1.8 1.77v2.31h3.6l-.47 3.62h-3.12V24h-3.74v-9.3H9.69v-3.62h3.13V8.41c0-3.1 1.89-4.79 4.66-4.79 1.32 0 2.46.1 2.8.15V7h-.01Z"/>
</g>

<g class="sprite" id="instagram" viewBox="0 0 24 24">
<path fill="#E61F5A" d="M12 5.85a6.14 6.14 0 1 0-.02 12.29A6.14 6.14 0 0 0 12 5.84ZM12 16a4 4 0 0 1 0-8 4 4 0 0 1 0 8Zm6.4-11.84a1.44 1.44 0 1 0 0 2.87 1.44 1.44 0 0 0 0-2.87ZM24 12c0-1.66.01-3.3-.08-4.95-.1-1.92-.53-3.62-1.94-5.03C20.58.62 18.88.18 16.95.1 15.3-.01 13.65 0 12 0c-1.65 0-3.3-.02-4.95.08-1.92.09-3.62.53-5.02 1.93C.62 3.42.18 5.13.09 7.05 0 8.71.01 10.35.01 12c0 1.65-.01 3.3.08 4.95.1 1.92.53 3.62 1.94 5.03 1.4 1.4 3.1 1.84 5.02 1.93 1.66.1 3.3.08 4.95.08 1.66 0 3.3.02 4.95-.08 1.92-.09 3.63-.53 5.03-1.93 1.41-1.4 1.84-3.11 1.94-5.03.1-1.65.08-3.3.08-4.95Zm-2.64 7.07c-.22.55-.49.96-.91 1.38-.42.42-.83.69-1.37.9-1.58.63-5.33.49-7.08.49s-5.5.14-7.08-.48a3.81 3.81 0 0 1-1.37-.9 3.84 3.84 0 0 1-.9-1.38c-.63-1.58-.49-5.33-.49-7.08s-.14-5.5.48-7.08c.22-.54.49-.95.91-1.37.42-.42.83-.69 1.37-.9 1.58-.63 5.33-.49 7.08-.49s5.5-.14 7.08.48c.54.22.95.49 1.37.9.43.43.69.84.9 1.38.63 1.58.5 5.33.5 7.08s.13 5.5-.5 7.07Z"/>
</g>

<g class="sprite" id="twitter" viewBox="0 0 24 20">
<path fill="#21A6DF" d="M24 2.47c-.88.38-1.84.66-2.83.77A4.96 4.96 0 0 0 23.33.49c-.96.58-2.02.99-3.12 1.2A4.9 4.9 0 0 0 16.62.12a4.95 4.95 0 0 0-4.79 6.13A13.9 13.9 0 0 1 1.7 1.03 5 5 0 0 0 3.22 7.7 4.9 4.9 0 0 1 1 7.07v.06a4.97 4.97 0 0 0 3.94 4.9 5.13 5.13 0 0 1-2.22.09 4.93 4.93 0 0 0 4.6 3.46 9.76 9.76 0 0 1-7.3 2.07 13.77 13.77 0 0 0 7.55 2.23c9.04 0 13.98-7.6 13.98-14.19l-.01-.65c.95-.7 1.8-1.59 2.46-2.57Z"/>
</g>

<g class="sprite" id="youtube" viewBox="0 0 24 18">
<path fill="#E42F08" d="M23.47 2.93a3.2 3.2 0 0 0-.77-1.4A2.97 2.97 0 0 0 21.36.7C19.48.18 11.99.18 11.99.18s-7.5 0-9.37.53c-.5.14-.97.42-1.34.81a3.2 3.2 0 0 0-.77 1.41C.16 4.93-.01 6.96 0 9c-.02 2.03.15 4.07.5 6.07.13.53.4 1.02.77 1.4.37.4.83.68 1.34.82 1.87.53 9.37.53 9.37.53s7.5 0 9.37-.53c.5-.14.96-.42 1.34-.81.37-.4.63-.88.77-1.41.35-2 .52-4.04.5-6.07.02-2.04-.15-4.07-.5-6.07ZM9.59 12.78V5.22L15.82 9l-6.23 3.78Z"/>
</g>

<g class="sprite" id="video" viewBox="0 0 99 99">
<rect width="97.6" height="98.4" x=".5" fill="#0D5C63" rx="48.8"/>
<path fill="#fff" d="m37.3 34.8 24 14.4-24 14.4V34.8Z"/>
</g>

</svg>