<svg xmlns="http://www.w3.org/2000/svg" fill="none" viewBox="0 0 33 32"><path fill="#FF7B47" fill-rule="evenodd" d="M18.74 8.77a4.25 4.25 0 1 1-4.72-7.07 4.25 4.25 0 0 1 4.72 7.07Zm-1.18-5.3A2.13 2.13 0 1 0 15.19 7a2.13 2.13 0 0 0 2.37-3.53Zm5.54.07a3.17 3.17 0 0 1 4.83 1.73 3.21 3.21 0 0 1-3.68 4.08 3.17 3.17 0 0 1-2.38-2.07 3.21 3.21 0 0 1 1.24-3.74Zm1.02 3.42a1.06 1.06 0 1 0 1.5-1.5c-.2-.2-.46-.32-.74-.33A1.06 1.06 0 0 0 23.8 6.2c0 .29.12.56.31.76ZM6.15 25.4H10v2.13H6.15a2.54 2.54 0 0 1-2.52-2.56v-3.85a2.12 2.12 0 0 1-1.51-.7 2.14 2.14 0 0 1-.62-1.57v-4.63a3.75 3.75 0 0 1 3.74-3.78h3.91a6.19 6.19 0 0 0-1.17 2.13H5.24a1.65 1.65 0 0 0-1.62 1.65v4.74h2.13v6a.43.43 0 0 0 .1.33c.1.06.2.1.3.1Zm15.52-13.85A3.75 3.75 0 0 0 19 10.44h-5.27c-.99 0-1.94.4-2.63 1.1-.7.72-1.1 1.68-1.1 2.68v6.75c-.01.58.2 1.14.6 1.56a2.12 2.12 0 0 0 1.52.7v4.94a2.55 2.55 0 0 0 .74 1.82c.38.36.86.59 1.38.66h4.25a2.44 2.44 0 0 0 2.13-2.48v-4.93a2.12 2.12 0 0 0 1.5-.7 2.14 2.14 0 0 0 .62-1.57v-6.75c0-1-.39-1.96-1.08-2.68Zm-1.04 9.53H18.5v7.1c0 .1-.05.21-.13.3a.36.36 0 0 1-.3.12h-3.42a.45.45 0 0 1-.42-.43v-7.1h-2.1v-6.85c0-.43.16-.85.46-1.16.3-.3.72-.48 1.15-.49h5.27a1.65 1.65 0 0 1 1.5 1.02c.08.2.12.41.12.63v6.86Zm5.97 6.45h-3.85V25.4h3.83a.5.5 0 0 0 .3-.11.42.42 0 0 0 .12-.32v-6h2.13v-4.75a1.65 1.65 0 0 0-1.62-1.65h-2.74a6.18 6.18 0 0 0-1.17-2.14h3.91a3.76 3.76 0 0 1 3.74 3.79v4.63a2.27 2.27 0 0 1-2.12 2.27v3.85a2.57 2.57 0 0 1-2.53 2.56ZM7.88 3a3.17 3.17 0 0 0-3.13 3.83 3.22 3.22 0 0 0 2.5 2.52 3.18 3.18 0 0 0 3.81-3.15A3.21 3.21 0 0 0 7.88 3Zm0 4.27A1.06 1.06 0 0 1 6.8 6.2a1.07 1.07 0 0 1 1.07-1.07A1.08 1.08 0 0 1 8.94 6.2a1.07 1.07 0 0 1-1.06 1.07Z" clip-rule="evenodd"/></svg>