<svg xmlns="http://www.w3.org/2000/svg" fill="none" viewBox="0 0 36 48"><path fill="#0D5C63" d="M9.06 34c-.8-.82-.38-.59-2.34-1.12a6.72 6.72 0 0 1-2.37-1.24L.1 42.06a1.5 1.5 0 0 0 1.44 2.07l4.92-.19 3.38 3.59c.75.8 2.06.54 2.47-.47l4.86-11.96c-1.02.57-2.14.9-3.3.9a6.75 6.75 0 0 1-4.82-2Zm26.67 8.06-4.24-10.42a6.7 6.7 0 0 1-2.37 1.24c-1.97.53-1.54.3-2.35 1.11-1.28 1.3-3 2-4.81 2a6.76 6.76 0 0 1-3.3-.89l4.86 11.96a1.49 1.49 0 0 0 2.47.47l3.38-3.59 4.92.19a1.5 1.5 0 0 0 1.44-2.07ZM24.55 31.87c1.42-1.45 1.59-1.33 3.62-1.88a3.8 3.8 0 0 0 2.65-2.72c.7-2.66.52-2.34 2.43-4.3a3.9 3.9 0 0 0 .97-3.7c-.7-2.66-.7-2.3 0-4.95a3.9 3.9 0 0 0-.97-3.71c-1.91-1.95-1.73-1.63-2.43-4.3a3.8 3.8 0 0 0-2.65-2.71c-2.6-.71-2.3-.53-4.2-2.48a3.7 3.7 0 0 0-3.63-1c-2.6.72-2.24.72-4.84 0a3.7 3.7 0 0 0-3.63 1c-1.9 1.95-1.6 1.77-4.2 2.48a3.8 3.8 0 0 0-2.65 2.72c-.7 2.66-.52 2.34-2.43 4.29a3.9 3.9 0 0 0-.97 3.7c.7 2.66.7 2.3 0 4.96a3.9 3.9 0 0 0 .97 3.7c1.9 1.96 1.73 1.64 2.43 4.3a3.8 3.8 0 0 0 2.65 2.72c2.1.57 2.25.48 3.62 1.88a3.7 3.7 0 0 0 4.64.55 3.7 3.7 0 0 1 3.97 0 3.7 3.7 0 0 0 4.65-.55ZM9.1 16.5c0-4.97 3.95-9 8.8-9a8.9 8.9 0 0 1 8.81 9c0 4.98-3.94 9-8.8 9a8.9 8.9 0 0 1-8.8-9Z"/></svg>