<svg xmlns="http://www.w3.org/2000/svg" fill="none" viewBox="0 0 48 41"><path fill="#0D5C63" d="M42.59 8.53h-5.07V3.46A3.38 3.38 0 0 0 34.14.08H13.86a3.38 3.38 0 0 0-3.38 3.38v5.07H5.41a5.07 5.07 0 0 0-5.07 5.06v23.66a3.38 3.38 0 0 0 3.38 3.38h40.56a3.38 3.38 0 0 0 3.38-3.38V13.6a5.07 5.07 0 0 0-5.07-5.06ZM13.86 3.46h20.28v5.07H13.86V3.46Zm30.42 33.8H3.72V22.03h13.52v8.45h13.52v-8.45h13.52v15.21ZM20.62 22.03h6.76v5.07h-6.76v-5.07Zm-16.9-3.38V13.6a1.69 1.69 0 0 1 1.7-1.69h37.17a1.69 1.69 0 0 1 1.69 1.7v5.06H3.72Z"/></svg>