<svg xmlns="http://www.w3.org/2000/svg" fill="none" viewBox="0 0 48 27"><path fill="#0D5C63" d="M43.15 12.28c-.57 0-1.14.12-1.68.33l-5.74-4.79A6.02 6.02 0 0 0 29.99.1 6.02 6.02 0 0 0 24 6.2c0 .96.24 1.86.63 2.67l-6.97 8.38a4.62 4.62 0 0 0-2.07.1l-6.13-6.25a4.82 4.82 0 0 0-4.6-6.12 4.82 4.82 0 0 0-4.8 4.87c0 2.7 2.14 4.88 4.79 4.88.43 0 .83-.07 1.23-.18l6.13 6.25a4.82 4.82 0 0 0 4.6 6.12 4.82 4.82 0 0 0 4.5-6.51L28.3 12c.54.17 1.1.28 1.7.28.94 0 1.87-.24 2.7-.68l5.75 4.78a4.82 4.82 0 0 0 4.71 5.65 4.82 4.82 0 0 0 4.79-4.87c0-2.7-2.14-4.88-4.79-4.88Z"/></svg>