<svg xmlns="http://www.w3.org/2000/svg" fill="none" viewBox="0 0 24 24"><g clip-path="url(#a)"><path fill="#E61F5A" d="M12 5.85a6.14 6.14 0 1 0-.02 12.29A6.14 6.14 0 0 0 12 5.84ZM12 16a4 4 0 0 1 0-8 4 4 0 0 1 0 8Zm6.4-11.84a1.44 1.44 0 1 0 0 2.87 1.44 1.44 0 0 0 0-2.87ZM24 12c0-1.66.01-3.3-.08-4.95-.1-1.92-.53-3.62-1.94-5.03C20.58.62 18.88.18 16.95.1 15.3-.01 13.65 0 12 0c-1.65 0-3.3-.02-4.95.08-1.92.09-3.62.53-5.02 1.93C.62 3.42.18 5.13.09 7.05 0 8.71.01 10.35.01 12c0 1.65-.01 3.3.08 4.95.1 1.92.53 3.62 1.94 5.03 1.4 1.4 3.1 1.84 5.02 1.93 1.66.1 3.3.08 4.95.08 1.66 0 3.3.02 4.95-.08 1.92-.09 3.63-.53 5.03-1.93 1.41-1.4 1.84-3.11 1.94-5.03.1-1.65.08-3.3.08-4.95Zm-2.64 7.07c-.22.55-.49.96-.91 1.38-.42.42-.83.69-1.37.9-1.58.63-5.33.49-7.08.49s-5.5.14-7.08-.48a3.81 3.81 0 0 1-1.37-.9 3.84 3.84 0 0 1-.9-1.38c-.63-1.58-.49-5.33-.49-7.08s-.14-5.5.48-7.08c.22-.54.49-.95.91-1.37.42-.42.83-.69 1.37-.9 1.58-.63 5.33-.49 7.08-.49s5.5-.14 7.08.48c.54.22.95.49 1.37.9.43.43.69.84.9 1.38.63 1.58.5 5.33.5 7.08s.13 5.5-.5 7.07Z"/></g><defs><clipPath id="a"><path fill="#fff" d="M0 0h24v24H0z"/></clipPath></defs></svg>