<svg xmlns="http://www.w3.org/2000/svg" fill="none" viewBox="0 0 48 48"><g clip-path="url(#a)"><g fill="#fff" clip-path="url(#b)"><path d="M29.64 13.62h12v3.45h-12v-3.45ZM29.64 22.24h12v3.44h-12v-3.44ZM29.64 30.85h12v3.45h-12v-3.45Z"/><path d="M45.07 5.01H3.93A3.42 3.42 0 0 0 .5 8.46v31a3.46 3.46 0 0 0 3.43 3.45h41.14a3.42 3.42 0 0 0 3.43-3.45v-31A3.46 3.46 0 0 0 45.07 5ZM3.93 8.46H22.8v31H3.93v-31Zm22.28 31v-31h18.86v31H26.21Z"/></g></g><defs><clipPath id="a"><path fill="#fff" d="M0 0h48v48H0z"/></clipPath><clipPath id="b"><path fill="#fff" d="M.5 5h48v37.92H.5z"/></clipPath></defs></svg>