<svg xmlns="http://www.w3.org/2000/svg" fill="none" viewBox="0 0 151 142"><g clip-path="url(#a)"><path fill="#737373" d="M133.19 54.55c-4.7 0-8.83 1.97-11.86 5.03-11.18-7.8-26.23-12.84-42.92-13.37l8.67-39.47L114.7 13c0 6.83 5.51 12.4 12.27 12.4 6.89 0 12.43-5.73 12.43-12.56S133.88.28 126.96.28c-4.82 0-8.98 2.95-11.05 6.96L85.42.41c-1.53-.41-3.03.7-3.44 2.25l-9.52 43.51C55.9 46.87 41 51.9 29.8 59.71a16.55 16.55 0 0 0-12.02-5.16c-17.4 0-23.1 23.6-7.17 31.66-.56 2.5-.81 5.16-.81 7.81 0 26.5 29.55 47.98 65.82 47.98 36.44 0 66-21.47 66-47.98 0-2.65-.3-5.44-.98-7.93 15.62-8.1 9.86-31.54-7.45-31.54ZM35.87 87.9c0-6.96 5.51-12.56 12.43-12.56 6.76 0 12.27 5.57 12.27 12.56a12.35 12.35 0 1 1-24.7 0Zm67.08 29.57c-11.4 11.51-43.54 11.51-54.93 0-1.26-1.1-1.26-3.07 0-4.33a2.99 2.99 0 0 1 4.13 0c8.7 9 37.56 9.17 46.64 0a2.99 2.99 0 0 1 4.13 0c1.28 1.26 1.28 3.22.03 4.33Zm-.25-17.14a12.35 12.35 0 0 1-12.27-12.4c0-6.96 5.51-12.56 12.27-12.56 6.89 0 12.43 5.57 12.43 12.56a12.45 12.45 0 0 1-12.43 12.4Z"/></g><defs><clipPath id="a"><path fill="#fff" d="M1 0h149v142H1z"/></clipPath></defs></svg>