<svg width="153" height="50" viewBox="0 0 153 50" fill="none" xmlns="http://www.w3.org/2000/svg">
<g clip-path="url(#clip0_964_17246)">
<path d="M35.642 46.9483L44.5587 47.1361C41.4856 46.0563 38.5056 44.7417 35.642 43.1925V46.9483ZM49.0752 45.7042V46.9483L44.5587 47.1361C53.0563 50.0704 60.8323 50.4695 66.606 48.8263C61.973 48.8732 55.9432 48.2159 49.0752 45.7042ZM144.272 18.6619C147.974 18.6619 151.001 15.6338 151.001 11.8779C151.001 8.12203 147.997 6.12672 144.272 6.12672C140.571 6.12672 137.544 8.1455 137.544 11.8779C137.544 15.6103 140.547 18.6619 144.272 18.6619ZM137.521 46.9483H151.001V21.0094H137.521V46.9483ZM120.362 46.9483H133.842V1.10325L120.362 7.5117V46.9483ZM113.145 18.9202C108.908 14.6479 101.411 14.9061 101.411 14.9061C101.411 14.9061 93.8916 14.6479 89.6777 18.9202C85.4405 23.1925 85.7665 26.8779 85.7665 31.2676C85.7665 35.6572 85.4405 39.3192 89.6777 43.5915C93.9149 47.8638 101.411 47.6056 101.411 47.6056C101.411 47.6056 108.931 47.8638 113.145 43.5915C117.382 39.3192 117.056 35.6572 117.056 31.2676C117.033 26.8544 117.359 23.169 113.145 18.9202ZM103.879 35.7981C103.879 36.6432 103.46 38.7324 101.388 38.7324C99.3162 38.7324 98.8971 36.6432 98.8971 35.7981V26.3145C98.8971 24.2723 100.597 23.7558 101.388 23.7558C102.18 23.7558 103.879 24.2488 103.879 26.3145V35.7981ZM79.1546 18.9202C74.9174 14.6479 67.4209 14.9061 67.4209 14.9061C67.4209 14.9061 59.9243 14.6479 55.6871 18.9202C55.2448 19.3662 54.8257 19.8356 54.4532 20.3286C45.5598 13.3802 37.5743 9.41311 30.6831 5.98588V1.12672L25.4448 3.61498C12.7798 -1.57281 4.72446 -0.657317 2.79212 3.63846C2.79212 3.63846 -3.00491 11.338 17.1799 29.6479V46.9483H30.6598V40.2347C29.1465 39.2488 27.6332 38.1925 26.1432 37.0422C22.6976 34.4131 19.7641 31.9718 17.2032 29.6713V22.3943C20.2531 25.845 24.304 29.7652 29.6354 34.2018L30.6831 35.0469V28.0516C30.6831 26.4319 31.0788 23.7793 33.1974 23.7793C35.316 23.7793 35.6652 25.399 35.6652 27.3004V38.7324C39.8559 41.5962 44.3491 43.9202 49.0985 45.6807V23.6385C49.0985 19.2488 45.9788 14.8591 39.6463 14.8591C35.9679 14.8356 32.5456 16.784 30.6831 20V7.25348C40.4379 12.1596 50.216 18.169 53.941 20.9389C51.5663 24.3662 51.7759 27.5352 51.7759 31.1971C51.7759 35.5868 51.4499 39.2488 55.6871 43.5211C59.9243 47.7934 67.4209 47.5352 67.4209 47.5352C67.4209 47.5352 74.9407 47.7934 79.1546 43.5211C83.3918 39.2488 83.0426 35.5868 83.0426 31.1971C83.0426 26.8544 83.3918 23.169 79.1546 18.9202ZM17.1799 7.5117V22.3709C5.84196 9.57743 8.12353 4.53048 8.98493 3.80278C12.1279 1.12672 17.7154 1.92484 23.9781 4.29574L17.1799 7.5117ZM69.912 35.7981C69.912 36.6432 69.4929 38.7324 67.4209 38.7324C65.3488 38.7324 64.9298 36.6432 64.9298 35.7981V26.3145C64.9298 24.2723 66.6293 23.7558 67.4209 23.7558C68.2124 23.7558 69.912 24.2488 69.912 26.3145V35.7981Z" fill="#737373"/>
</g>
<defs>
<clipPath id="clip0_964_17246">
<rect width="149" height="50" fill="white" transform="translate(2)"/>
</clipPath>
</defs>
</svg>
