<svg xmlns="http://www.w3.org/2000/svg" fill="none" viewBox="0 0 153 50"><g clip-path="url(#a)"><path fill="#737373" d="m35.64 46.95 8.92.19a61.74 61.74 0 0 1-8.92-3.95v3.76Zm13.44-1.25v1.25l-4.52.19c8.5 2.93 16.27 3.33 22.05 1.69a49.48 49.48 0 0 1-17.53-3.13Zm95.2-27.04c3.7 0 6.72-3.03 6.72-6.78 0-3.76-3-5.75-6.73-5.75-3.7 0-6.73 2.02-6.73 5.75s3 6.78 6.73 6.78Zm-6.76 28.29H151V21h-13.48v25.94Zm-17.16 0h13.48V1.1l-13.48 6.41v39.44Zm-7.22-28.03c-4.23-4.27-11.73-4.01-11.73-4.01s-7.52-.26-11.73 4.01c-4.24 4.27-3.91 7.96-3.91 12.35s-.33 8.05 3.9 12.32c4.24 4.27 11.74 4.02 11.74 4.02s7.52.25 11.73-4.02c4.24-4.27 3.92-7.93 3.92-12.32-.03-4.42.3-8.1-3.92-12.35Zm-9.26 16.88c0 .84-.42 2.93-2.5 2.93-2.06 0-2.48-2.09-2.48-2.93V26.3c0-2.04 1.7-2.55 2.49-2.55.79 0 2.49.49 2.49 2.55v9.49ZM79.15 18.92c-4.23-4.27-11.73-4.01-11.73-4.01s-7.5-.26-11.73 4.01c-.45.45-.86.92-1.24 1.4C45.56 13.39 37.57 9.43 30.68 6V1.13L25.44 3.6C12.78-1.57 4.72-.66 2.8 3.64c0 0-5.8 7.7 14.39 26v17.3h13.48v-6.7a69.06 69.06 0 0 1-4.52-3.2 144.28 144.28 0 0 1-8.94-7.37V22.4A113.4 113.4 0 0 0 29.64 34.2l1.04.85v-7c0-1.62.4-4.27 2.52-4.27s2.47 1.62 2.47 3.52v11.43a61.89 61.89 0 0 0 13.43 6.95V23.64c0-4.4-3.12-8.78-9.45-8.78A10.28 10.28 0 0 0 30.68 20V7.25c9.76 4.91 19.54 10.92 23.26 13.69-2.37 3.43-2.16 6.6-2.16 10.26 0 4.39-.33 8.05 3.9 12.32 4.24 4.27 11.74 4.02 11.74 4.02s7.52.25 11.73-4.02c4.24-4.27 3.9-7.93 3.9-12.32 0-4.35.34-8.03-3.9-12.28ZM17.18 7.52v14.85C5.84 9.57 8.12 4.53 8.98 3.8c3.15-2.67 8.74-1.88 15 .5l-6.8 3.21ZM69.91 35.8c0 .84-.42 2.93-2.49 2.93-2.07 0-2.49-2.09-2.49-2.93V26.3c0-2.04 1.7-2.55 2.5-2.55.78 0 2.48.49 2.48 2.55v9.49Z"/></g><defs><clipPath id="a"><path fill="#fff" d="M2 0h149v50H2z"/></clipPath></defs></svg>