<svg width="153" height="109" viewBox="0 0 153 109" fill="none" xmlns="http://www.w3.org/2000/svg">
<g clip-path="url(#clip0_964_17252)">
<path d="M151 0.211914C132.189 12.8305 130.187 21.9884 128.557 24.7899C126.997 27.662 125.833 38.9858 123.132 44.4711C120.408 50.027 110.514 54.4059 107.743 56.2421C105.02 58.0784 101.155 65.2117 97.9886 71.3562C72.8216 70.3203 59.0158 80.4905 37.6436 93.3916C44.4883 91.108 47.7244 89.4601 47.7244 89.4601C69.6553 80.9849 80.1552 73.3808 113.168 77.8773C113.424 77.8773 113.61 78.0186 113.82 78.0657C114.728 78.5836 115.054 79.6901 114.542 80.6082L101.993 103.162C101.411 104.268 100.177 104.857 98.9431 104.598C69.4225 98.9946 46.118 108.67 24.6992 108.976C7.61078 109.235 2 101.09 2 100.713C2 100.454 2.13969 100.313 2.39578 100.313C2.39578 100.313 11.3125 100.313 26.3988 96.711C43.5337 63.6815 58.8062 52.1223 75.4291 52.1223C75.4291 52.1223 92.1217 52.1223 96.5219 66.6948C101.83 57.3486 103.11 55.1121 103.11 55.1121C104.344 52.8992 111.259 36.9376 123.225 21.8236C135.215 6.75662 144.272 3.01343 151 0.211914Z" fill="#737373"/>
</g>
<defs>
<clipPath id="clip0_964_17252">
<rect width="149" height="109" fill="white" transform="translate(2)"/>
</clipPath>
</defs>
</svg>
