<svg xmlns="http://www.w3.org/2000/svg" fill="none" viewBox="0 0 153 109"><g clip-path="url(#a)"><path fill="#737373" d="M151 .21C132.19 12.83 130.19 22 128.56 24.8c-1.56 2.87-2.73 14.2-5.43 19.68-2.72 5.56-12.62 9.94-15.39 11.77-2.72 1.84-6.58 8.97-9.75 15.12-25.17-1.04-38.97 9.13-60.35 22.03 6.85-2.28 10.08-3.93 10.08-3.93 21.94-8.48 32.44-16.08 65.45-11.58.25 0 .44.14.65.19.9.51 1.23 1.62.72 2.54L102 103.16a2.79 2.79 0 0 1-3.05 1.44c-29.52-5.6-52.82 4.07-74.24 4.38C7.6 109.23 2 101.09 2 100.7c0-.26.14-.4.4-.4 0 0 8.91 0 24-3.6 17.13-33.03 32.4-44.59 49.03-44.59 0 0 16.7 0 21.1 14.57l6.58-11.58c1.23-2.21 8.15-18.17 20.11-33.29 12-15.06 21.05-18.8 27.78-21.6Z"/></g><defs><clipPath id="a"><path fill="#fff" d="M2 0h149v109H2z"/></clipPath></defs></svg>