<svg xmlns="http://www.w3.org/2000/svg" fill="none" viewBox="0 0 147 99"><g clip-path="url(#a)"><path fill="#737373" d="M4 1.67h21.12v57.08c0 9.05 4.07 14.44 7.39 16.68-3.45 3.03-13.9 5.71-21.78-.77C6.12 70.83 4 64.46 4 58.53V1.67Zm131.91 47.45V43.1h6.47v-21h-7.09A27.9 27.9 0 0 0 108.06.03C92.69.03 80.18 12.6 80.18 28.12v49c4.34.63 9.6-.08 14.03-3.83 4.65-3.82 6.74-10.17 6.74-16.13v-1.83h10.53v-21h-10.53v-6.38c0-9.46 14.17-9.46 14.17 0v21.09c0 15.48 12.49 28.08 27.88 28.08V56.2a7.09 7.09 0 0 1-7.09-7.08Zm-79.9-27.08v30.9c0 4.22-6.45 4.22-6.45 0v-30.9H28.7v36.3c0 6.5 2.17 14.76 12.21 17.47 10.05 2.68 15.8-2.9 15.8-2.9-.57 3.67-3.93 6.37-9.47 6.92-4.21.44-9.56-.98-12.22-2.13v19.22c6.81 2.05 13.98 2.68 21.07 1.29 12.78-2.49 20.85-13.24 20.85-27.57V21.91H56.02v.13Z"/></g><defs><clipPath id="a"><path fill="#fff" d="M4 0h139v99H4z"/></clipPath></defs></svg>