<svg width="151" height="142" viewBox="0 0 151 142" fill="none" xmlns="http://www.w3.org/2000/svg">
<g clip-path="url(#clip0_964_17261)">
<path d="M133.19 54.5545C128.495 54.5545 124.363 56.5153 121.327 59.583C110.152 51.7714 95.0951 46.7429 78.4108 46.2053L87.0816 6.73621L114.69 12.9981C114.69 19.8293 120.2 25.3955 126.961 25.3955C133.848 25.3955 139.388 19.6712 139.388 12.84C139.388 6.00882 133.879 0.284546 126.961 0.284546C122.14 0.284546 117.977 3.22575 115.911 7.24223L85.4226 0.411049C83.8888 -8.66652e-05 82.3863 1.10682 81.9793 2.65648L72.4634 46.1736C55.9043 46.8694 41.0043 51.8979 29.798 59.7095C26.7617 56.5153 22.4732 54.5545 17.7778 54.5545C0.373647 54.5545 -5.32341 78.1473 10.6096 86.2119C10.0461 88.7104 9.79571 91.3669 9.79571 94.0235C9.79571 120.526 39.3453 142 75.6249 142C112.061 142 141.611 120.526 141.611 94.0235C141.611 91.3669 141.329 88.5839 140.64 86.0854C156.26 77.9892 150.501 54.5545 133.19 54.5545ZM35.8707 87.8881C35.8707 80.9304 41.38 75.3326 48.2978 75.3326C55.0592 75.3326 60.5684 80.8988 60.5684 87.8881C60.5684 94.7193 55.0592 100.285 48.2978 100.285C41.4113 100.317 35.8707 94.7193 35.8707 87.8881ZM102.952 117.458C91.5579 128.97 59.4102 128.97 48.0161 117.458C46.764 116.351 46.764 114.391 48.0161 113.126C49.1117 112.019 51.0524 112.019 52.148 113.126C60.8501 122.139 89.711 122.297 98.7888 113.126C99.8844 112.019 101.825 112.019 102.921 113.126C104.204 114.391 104.204 116.351 102.952 117.458ZM102.702 100.317C95.9402 100.317 90.431 94.7509 90.431 87.9197C90.431 80.962 95.9402 75.3643 102.702 75.3643C109.588 75.3643 115.129 80.9304 115.129 87.9197C115.097 94.7193 109.588 100.317 102.702 100.317Z" fill="#737373"/>
</g>
<defs>
<clipPath id="clip0_964_17261">
<rect width="149" height="142" fill="white" transform="translate(1)"/>
</clipPath>
</defs>
</svg>
