<svg xmlns="http://www.w3.org/2000/svg" fill="none" viewBox="0 0 151 92"><g clip-path="url(#a)"><g clip-path="url(#b)"><path fill="#737373" d="M42.23 33.37c-.17 5.4 2.53 7.79 2.6 9.3a1.95 1.95 0 0 1-.98 1.5l-3.05 2.14c-.4.27-.86.43-1.34.46-.1-.01-1.96.43-4.88-6.1a18.73 18.73 0 0 1-14.93 7.01c-3.88.21-14.39-2.2-13.85-13.4-.38-9.12 8.12-14.79 16.9-14.3 1.7 0 5.15.08 11.2 1.49v-3.73c.64-6.3-3.5-11.2-10.68-10.46-.57 0-4.62-.12-10.92 2.4-1.75.81-1.98.68-2.56.68-1.77 0-1.04-5.12-.7-5.77C10.28 3.07 17.58.22 24.75.26c4.8-.43 9.56 1.05 13.27 4.12a16.75 16.75 0 0 1 4.22 12.48v16.51Zm-20.6 7.72c7.74-.11 11-4.76 11.75-7.26.59-2.4.5-3.91.5-6.53a40.96 40.96 0 0 0-9.44-1.16c-3.6-.28-10.2 1.34-9.94 7.69-.3 4 2.65 7.48 7.14 7.26Zm40.74 5.5c-1.87.17-2.74-1.16-3.02-2.48L47.48 4.87a9.11 9.11 0 0 1-.46-2.05 1.1 1.1 0 0 1 .92-1.25h5.3c2.1-.2 2.78 1.44 3 2.47l8.5 33.57 7.91-33.57c.13-.76.7-2.63 3.05-2.44h4.1c.5-.04 2.64-.12 3.01 2.48l7.97 33.99 8.78-34c.12-.51.65-2.7 3.03-2.47h4.7c.2-.03 1.46-.19 1.25 2.05-.1.44.81-2.54-12.57 40.5-.28 1.3-1.15 2.64-3.03 2.46H88.5c-2.6.28-2.98-2.3-3.02-2.56l-7.9-32.68-7.82 32.65c-.03.26-.4 2.84-3.02 2.56h-4.36Zm65.18 1.34c-1.4 0-8.09-.08-13.67-2.93a3.05 3.05 0 0 1-1.86-2.84V39.6c0-2.02 1.47-1.65 2.1-1.4 2.4.96 3.93 1.7 6.86 2.28 8.74 1.8 12.58-.55 13.52-1.07a5.48 5.48 0 0 0 1.25-8.33c-2.5-2.1-3.69-2.17-12.66-5-1.1-.31-10.41-3.25-10.43-12.48C112.5 6.87 118.63.2 129.22.26c3.02 0 11.07.99 13.25 3.73.32.5.48 1.08.45 1.67v2.41c0 1.06-.38 1.59-1.16 1.59-1.83-.2-5.1-2.66-11.71-2.56-1.64-.09-9.5.21-9.16 5.95-.1 4.52 6.35 6.21 7.08 6.4 8.7 2.62 11.6 3.06 15.04 7.06 4.09 5.3 1.89 11.51 1.04 13.21-4.55 8.94-16.3 8.21-16.5 8.2Zm9.58 24.99C120.43 85.25 96.2 91.8 75.53 91.8A111.8 111.8 0 0 1-.1 63.03c-1.55-1.4-.18-3.33 1.71-2.26a151.88 151.88 0 0 0 75.52 20.05c19.78-.1 39.35-4.12 57.57-11.8 2.81-1.2 5.2 1.85 2.42 3.9Zm6.95-7.94c-2.13-2.74-14.13-1.28-19.5-.64-1.61.19-1.89-1.22-.42-2.25 9.55-6.72 25.23-4.8 27.03-2.54 1.8 2.26-.48 17.98-9.42 25.48-1.38 1.16-2.69.55-2.08-.97 2.01-5.07 6.53-16.33 4.4-19.08Z"/></g></g><defs><clipPath id="a"><path fill="#fff" d="M0 0h151v92H0z"/></clipPath><clipPath id="b"><path fill="#fff" d="M-1 0h153v92H-1z"/></clipPath></defs></svg>