<svg xmlns="http://www.w3.org/2000/svg" xmlns:xlink="http://www.w3.org/1999/xlink" fill="none" viewBox="0 0 149 60"><defs><path id="reuse-0" fill="#fff" d="M0 0h149v60H0z"/></defs><g clip-path="url(#a)"><g clip-path="url(#b)"><path fill="#737373" d="M38.42 4.7 28.33 6.8l-.04 32.36c0 5.98 4.6 9.84 10.73 9.84 3.4 0 5.9-.61 7.26-1.34v-7.68c-1.32.52-7.84 2.38-7.84-3.57V22.05h7.84v-8.6h-7.84l-.02-8.75Zm20.74 11.73-.63-2.98h-8.94v34.82H59.9V24.84c2.45-3.14 6.57-2.52 7.9-2.11v-9.28c-1.4-.47-6.22-1.36-8.64 2.98ZM80.65 0 70.26 2.16v8.23l10.39-2.16V0Zm-70.2 23.7c0-1.56 1.35-2.18 3.52-2.2 3.14 0 7.15.93 10.29 2.6v-9.5a28.19 28.19 0 0 0-10.27-1.85C5.61 12.75.02 17.02.02 24.15c0 11.2 15.72 9.37 15.72 14.2 0 1.85-1.65 2.47-3.96 2.47-3.42 0-7.84-1.39-11.31-3.23v9.1a29.25 29.25 0 0 0 11.29 2.29c8.59 0 14.5-3.6 14.5-10.87 0-12.02-15.8-9.86-15.8-14.4ZM149 31.27c0-10.34-5.12-18.5-14.94-18.5-9.83 0-15.81 8.16-15.81 18.43 0 12.16 7.05 17.78 17.1 17.78 4.94 0 8.65-1.1 11.46-2.62v-7.59A22.3 22.3 0 0 1 136.66 41c-4.03 0-7.56-1.39-8.03-6.11h20.23c.05-.53.14-2.64.14-3.62Zm-20.46-3.82c0-4.54 2.86-6.45 5.45-6.45 2.53 0 5.23 1.9 5.23 6.45h-10.68Zm-26.29-14.68a11.8 11.8 0 0 0-8.1 3.16l-.54-2.5h-9.1v46.55l10.34-2.14.02-11.4a11.75 11.75 0 0 0 7.31 2.54c7.4 0 14.16-5.28 14.16-18.1.02-11.72-6.82-18.1-14.09-18.1Zm-2.47 27.84c-2.42 0-3.86-.86-4.86-1.9l-.07-15a6.27 6.27 0 0 1 4.93-2c3.78 0 6.38 4.13 6.38 9.4.03 5.44-2.53 9.5-6.38 9.5Zm-29.5 7.66h10.4V13.45h-10.4v34.82Z"/></g></g><defs><clipPath id="a"><use xlink:href="#reuse-0"/></clipPath><clipPath id="b"><use xlink:href="#reuse-0"/></clipPath></defs></svg>