<svg xmlns="http://www.w3.org/2000/svg" fill="none" viewBox="0 0 49 48"><g clip-path="url(#a)"><g fill="#0D5C63" clip-path="url(#b)"><path d="M24.84 22.8c4.3 0 7.65-3.5 7.65-7.78 0-4.3-3.5-7.63-7.8-7.63-4.31 0-7.66 3.5-7.66 7.63 0 4.29 3.5 7.78 7.81 7.78Zm-.16-12.23c.16 0 .16 0 0 0a4.62 4.62 0 0 1 4.62 4.6 4.49 4.49 0 0 1-4.62 4.45 4.45 4.45 0 0 1-4.46-4.44c0-2.55 2.07-4.61 4.46-4.61ZM48.43 21.85a15.82 15.82 0 0 0-11.16-3.97H36c-.32 1.27-.8 2.38-1.44 3.33.96-.16 1.76-.16 2.71-.16 3.03-.15 6.06.8 8.45 2.55v11.44h3.2V22.33l-.49-.48ZM33.6 7.7a3.94 3.94 0 0 1 5.11-2.06 3.92 3.92 0 0 1 2.07 5.09 3.98 3.98 0 0 1-3.5 2.38c-.32 0-.8 0-1.12-.16.16.8.16 1.59.16 2.23v.95c.32 0 .64.16.96.16a7.1 7.1 0 0 0 7.17-7 7.1 7.1 0 0 0-7.02-7.14 6.84 6.84 0 0 0-6.05 3.5A6.8 6.8 0 0 1 33.6 7.7ZM15.44 21.37A10.57 10.57 0 0 1 14 18.04h-1.27a16.44 16.44 0 0 0-11.16 3.8l-.48.49v12.7h3.19V23.6a13.58 13.58 0 0 1 8.45-2.55c.95 0 1.9.16 2.7.32ZM12.72 16.13c.32 0 .64 0 .96-.16v-.95c0-.8 0-1.6.16-2.23-.32.16-.8.16-1.12.16A3.87 3.87 0 0 1 8.9 9.14a3.87 3.87 0 0 1 3.82-3.81c1.6 0 3.03.95 3.67 2.38.64-.8 1.6-1.59 2.4-2.23A7.06 7.06 0 0 0 9.05 3.1a7.01 7.01 0 0 0 3.66 13.03ZM37.91 31.38l-.32-.48a16.11 16.11 0 0 0-12.43-5.4c-4.78-.16-9.4 1.91-12.6 5.4l-.31.48v12.08c0 1.43 1.11 2.7 2.7 2.7h20.41a2.79 2.79 0 0 0 2.71-2.7V31.38h-.16Zm-3.19 11.6H15.44V32.49a13.63 13.63 0 0 1 9.72-3.81c3.5-.16 7.01 1.27 9.56 3.81v10.49Z"/></g></g><defs><clipPath id="a"><path fill="#fff" d="M.5 0h48v48H.5z"/></clipPath><clipPath id="b"><path fill="#fff" d="M1 2h48v44.21H1z"/></clipPath></defs></svg>