<svg xmlns="http://www.w3.org/2000/svg" fill="none" viewBox="0 0 73 72"><g clip-path="url(#a)"><path fill="#0D5C63" d="M56.93 39a3.78 3.78 0 0 0-5.36 0l-6.04 6.03c-2.8-.83-8.02-2.72-11.33-6.04-3.31-3.3-5.2-8.53-6.04-11.33l6.04-6.04a3.78 3.78 0 0 0 0-5.36L19.05 1.11a3.78 3.78 0 0 0-5.36 0L3.4 11.38a7.57 7.57 0 0 0-2.22 5.44c.1 5.4 1.52 24.13 16.29 38.9 14.76 14.77 33.5 16.2 38.9 16.28h.1c2 0 3.9-.78 5.33-2.22l10.27-10.27a3.78 3.78 0 0 0 0-5.36L56.93 39Zm-.48 25.42c-4.73-.08-20.9-1.35-33.62-14.06C10.08 37.61 8.85 21.37 8.77 16.74l7.6-7.6 9.8 9.8-4.9 4.9a3.79 3.79 0 0 0-1.04 3.46c.1.43 2.32 10.76 8.6 17.05 6.3 6.29 16.63 8.51 17.06 8.6a3.75 3.75 0 0 0 3.46-1.02l4.9-4.9 9.8 9.8-7.6 7.6Z"/></g><defs><clipPath id="a"><path fill="#fff" d="M.5 0h72v72H.5z"/></clipPath></defs></svg>