<svg xmlns="http://www.w3.org/2000/svg" fill="none" viewBox="0 0 57 71"><path fill="#fff" d="M28.5 42c8 0 14.5-6.28 14.5-14s-6.5-14-14.5-14S14 20.28 14 28s6.5 14 14.5 14Zm0-21c4 0 7.25 3.14 7.25 7s-3.25 7-7.25 7-7.25-3.14-7.25-7 3.25-7 7.25-7Z"/><path fill="#fff" d="M26.43 70.34a3.56 3.56 0 0 0 4.14 0C31.65 69.58 57.1 51.26 57 28.4A28.48 28.48 0 0 0 28.5 0 28.48 28.48 0 0 0 0 28.38c-.1 22.88 25.35 41.2 26.43 41.96ZM28.5 7.1a21.36 21.36 0 0 1 21.37 21.32c.08 15.75-15.63 29.9-21.37 34.54-5.74-4.64-21.45-18.8-21.37-34.56 0-11.75 9.58-21.3 21.37-21.3Z"/></svg>