<svg width="48" height="48" viewBox="0 0 48 48" fill="none" xmlns="http://www.w3.org/2000/svg">
<g clip-path="url(#clip0_964_18663)">
<g clip-path="url(#clip1_964_18663)">
<path opacity="0.15" d="M43.1503 13.75H3.85031C3.83231 13.75 3.82031 13.7619 3.82031 13.7796V19.1849C3.82031 22.7291 6.76031 25.6037 10.3783 25.6037C12.8203 25.6037 14.9503 24.2998 16.0843 22.3617C16.2583 22.0594 16.5883 21.8698 16.9423 21.8698C17.2963 21.8698 17.6203 22.0594 17.8003 22.3617C18.9283 24.2998 21.0583 25.6037 23.5003 25.6037C25.9483 25.6037 28.0843 24.2938 29.2063 22.3498C29.3803 22.0535 29.6983 21.8698 30.0403 21.8698H30.0763C30.4243 21.8698 30.7363 22.0535 30.9103 22.3498C32.0383 24.2938 34.1743 25.6037 36.6223 25.6037C40.2403 25.6037 43.1803 22.7291 43.1803 19.1849V13.7796C43.1803 13.7619 43.1683 13.75 43.1503 13.75Z" fill="#0D5C63"/>
<path d="M45.7 9.48885V1.89659C45.7 0.847537 44.842 0 43.78 0H3.22003C2.15804 0 1.30004 0.847537 1.30004 1.89659V9.48885C0.298037 9.54812 -0.499963 10.372 -0.499963 11.3795V19.1851C-0.503805 20.6197 -0.209747 22.0398 0.364037 23.3576C0.622036 23.9622 0.940036 24.5311 1.30004 25.0705V45.518C1.30004 46.5612 2.15804 47.4146 3.22003 47.4146H43.78C44.842 47.4146 45.7 46.5671 45.7 45.518V25.0705C46.0657 24.5298 46.379 23.9563 46.636 23.3576C47.206 22.036 47.5 20.6313 47.5 19.1851V11.3795C47.5 10.372 46.702 9.54812 45.7 9.48885ZM5.62003 4.26732H41.38V9.48293H5.62003V4.26732ZM27.34 43.1532H19.66V36.9834H27.34V43.1532ZM41.404 43.1532H31.18V35.0868C31.18 34.0378 30.322 33.1902 29.26 33.1902H17.74C16.678 33.1902 15.82 34.0378 15.82 35.0868V43.1532H5.62003V28.7985C5.79403 28.8814 5.97403 28.9644 6.16003 29.0355C7.49803 29.5927 8.92003 29.8712 10.384 29.8712C11.848 29.8712 13.264 29.5927 14.608 29.0355C15.436 28.6918 16.216 28.2532 16.93 27.7257C16.942 27.7198 16.954 27.7198 16.966 27.7257C17.6822 28.2554 18.4622 28.6954 19.288 29.0355C20.626 29.5927 22.048 29.8712 23.512 29.8712C24.976 29.8712 26.392 29.5927 27.736 29.0355C28.564 28.6918 29.344 28.2532 30.058 27.7257C30.07 27.7198 30.082 27.7198 30.094 27.7257C30.8102 28.2554 31.5902 28.6954 32.416 29.0355C33.754 29.5927 35.176 29.8712 36.64 29.8712C38.104 29.8712 39.52 29.5927 40.864 29.0355C41.044 28.9585 41.224 28.8814 41.404 28.7985V43.1532ZM43.18 19.1851C43.18 22.7294 40.24 25.6039 36.622 25.6039C34.174 25.6039 32.038 24.2941 30.91 22.3501C30.736 22.0537 30.424 21.87 30.076 21.87H30.04C29.698 21.87 29.38 22.0537 29.206 22.3501C28.6304 23.3417 27.7992 24.1652 26.797 24.7367C25.7948 25.3082 24.6572 25.6074 23.5 25.6039C21.058 25.6039 18.928 24.3 17.8 22.3619C17.62 22.0597 17.296 21.87 16.942 21.87C16.588 21.87 16.258 22.0597 16.084 22.3619C15.505 23.3498 14.6728 24.1695 13.6711 24.7387C12.6694 25.3078 11.5336 25.6062 10.378 25.6039C6.76003 25.6039 3.82003 22.7294 3.82003 19.1851V13.7799C3.82003 13.7621 3.83203 13.7502 3.85003 13.7502H43.15C43.168 13.7502 43.18 13.7621 43.18 13.7799V19.1851Z" fill="#0D5C63"/>
</g>
</g>
<defs>
<clipPath id="clip0_964_18663">
<rect width="48" height="48" fill="white"/>
</clipPath>
<clipPath id="clip1_964_18663">
<rect width="48" height="47.4146" fill="white" transform="translate(-0.5)"/>
</clipPath>
</defs>
</svg>
