<svg xmlns="http://www.w3.org/2000/svg" fill="none" viewBox="0 0 48 48"><g clip-path="url(#a)"><g fill="#0D5C63" clip-path="url(#b)"><path d="M43.15 13.75H3.85c-.02 0-.03.01-.03.03v5.4a6.5 6.5 0 0 0 6.56 6.42 6.6 6.6 0 0 0 5.7-3.24 1 1 0 0 1 1.72 0 6.58 6.58 0 0 0 5.7 3.24 6.57 6.57 0 0 0 5.7-3.25c.18-.3.5-.48.84-.48h.04c.34 0 .66.18.83.48a6.59 6.59 0 0 0 5.71 3.25 6.5 6.5 0 0 0 6.56-6.42v-5.4c0-.02-.01-.03-.03-.03Z" opacity=".15"/><path d="M45.7 9.49v-7.6A1.9 1.9 0 0 0 43.78 0H3.22A1.9 1.9 0 0 0 1.3 1.9v7.59c-1 .06-1.8.88-1.8 1.89v7.8a10.38 10.38 0 0 0 1.8 5.89v20.45c0 1.04.86 1.9 1.92 1.9h40.56a1.9 1.9 0 0 0 1.92-1.9V25.07a10.48 10.48 0 0 0 1.8-5.89v-7.8c0-1-.8-1.83-1.8-1.9ZM5.62 4.27h35.76v5.21H5.62V4.27Zm21.72 38.88h-7.68v-6.17h7.68v6.17Zm14.06 0H31.18V35.1a1.9 1.9 0 0 0-1.92-1.9H17.74a1.9 1.9 0 0 0-1.92 1.9v8.06H5.62V28.8l.54.24a10.93 10.93 0 0 0 8.45 0 11 11 0 0 0 2.36-1.31 10.86 10.86 0 0 0 6.54 2.14 10.95 10.95 0 0 0 6.55-2.14h.03a10.86 10.86 0 0 0 6.55 2.14 10.95 10.95 0 0 0 4.76-1.07v14.35Zm1.78-23.96a6.5 6.5 0 0 1-6.56 6.41 6.59 6.59 0 0 1-5.71-3.25.96.96 0 0 0-.83-.48h-.04a.97.97 0 0 0-.83.48 6.51 6.51 0 0 1-5.71 3.25 6.58 6.58 0 0 1-5.7-3.24 1 1 0 0 0-1.72 0 6.54 6.54 0 0 1-5.7 3.24 6.5 6.5 0 0 1-6.56-6.41v-5.41c0-.02.01-.03.03-.03h39.3c.02 0 .03.01.03.03v5.4Z"/></g></g><defs><clipPath id="a"><path fill="#fff" d="M0 0h48v48H0z"/></clipPath><clipPath id="b"><path fill="#fff" d="M-.5 0h48v47.41h-48z"/></clipPath></defs></svg>