<svg xmlns="http://www.w3.org/2000/svg" fill="none" viewBox="0 0 24 20"><g clip-path="url(#a)"><path fill="#21A6DF" d="M24 2.47c-.88.38-1.84.66-2.83.77A4.96 4.96 0 0 0 23.33.49c-.96.58-2.02.99-3.12 1.2A4.9 4.9 0 0 0 16.62.12a4.95 4.95 0 0 0-4.79 6.13A13.9 13.9 0 0 1 1.7 1.03 5 5 0 0 0 3.22 7.7 4.9 4.9 0 0 1 1 7.07v.06a4.97 4.97 0 0 0 3.94 4.9 5.13 5.13 0 0 1-2.22.09 4.93 4.93 0 0 0 4.6 3.46 9.76 9.76 0 0 1-7.3 2.07 13.77 13.77 0 0 0 7.55 2.23c9.04 0 13.98-7.6 13.98-14.19l-.01-.65c.95-.7 1.8-1.59 2.46-2.57Z"/></g><defs><clipPath id="a"><path fill="#fff" d="M0 .12h24v19.76H0z"/></clipPath></defs></svg>