<svg xmlns="http://www.w3.org/2000/svg" fill="none" viewBox="0 0 24 18"><g clip-path="url(#a)"><path fill="#E42F08" d="M23.47 2.93a3.2 3.2 0 0 0-.77-1.4A2.97 2.97 0 0 0 21.36.7C19.48.18 11.99.18 11.99.18s-7.5 0-9.37.53c-.5.14-.97.42-1.34.81a3.2 3.2 0 0 0-.77 1.41C.16 4.93-.01 6.96 0 9c-.02 2.03.15 4.07.5 6.07.13.53.4 1.02.77 1.4.37.4.83.68 1.34.82 1.87.53 9.37.53 9.37.53s7.5 0 9.37-.53c.5-.14.96-.42 1.34-.81.37-.4.63-.88.77-1.41.35-2 .52-4.04.5-6.07.02-2.04-.15-4.07-.5-6.07ZM9.59 12.78V5.22L15.82 9l-6.23 3.78Z"/></g><defs><clipPath id="a"><path fill="#fff" d="M0 .16h24v17.68H0z"/></clipPath></defs></svg>